<?xml version="1.0" encoding="utf-8"?>
<?xml-stylesheet type="text/xsl" href="rss1.xsl"?>
<rss version="2.0" xmlns:atom="http://www.w3.org/2005/Atom" xmlns:content="http://purl.org/rss/1.0/modules/content/" xmlns:dc="http://purl.org/dc/elements/1.1/" xmlns:media="http://search.yahoo.com/mrss/">
<channel>
 <title>Getty</title>
 <link>http://www.gettyimg.com/</link>
 <atom:link href="http://www.gettyimg.com/" rel="self" type="application/rss+xml" />

 
                <item>
                <title><![CDATA[【HD Live Performances】HDTV - Jungle - Live @ Lollapalooza Brazil 2024 HDTV H264 1080i DD5.1-ilya2129]]></title>
                <link><![CDATA[https://sharemania.us/threads/jungle-live-lollapalooza-brazil-2024-hdtv-h264-1080i-dd5-1-ilya2129.240647/]]></link>
                <description><![CDATA[<article>
<blockquote class="messageText SelectQuoteContainer ugc baseHtml">
<div style="text-align: center"><img src="https://i121.fastpic.org/big/2023/0325/ca/6f5a28b7f8348073a65a926d4889cdca.png?r=1" class="bbCodeImage LbImage" alt="[​IMG]" data-url="https://i121.fastpic.org/big/2023/0325/ca/6f5a28b7f8348073a65a926d4889cdca.png?r=1" style=""><br>
<br>
<a href="https://postimg.cc/kBwYLXzX" target="_blank" class="externalLink" rel="nofollow"><img src="https://i.postimg.cc/kBwYLXzX/vlcsnap-2024-03-24-15h32m52s872.png" class="bbCodeImage LbImage" alt="[​IMG]" data-url="https://i.postimg.cc/kBwYLXzX/vlcsnap-2024-03-24-15h32m52s872.png"></a> <a href="https://postimg.cc/RWDsVpvk" target="_blank" class="externalLink" rel="nofollow"><img src="https://i.postimg.cc/RWDsVpvk/vlcsnap-2024-03-24-15h32m54s449.png" class="bbCodeImage LbImage" alt="[​IMG]" data-url="https://i.postimg.cc/RWDsVpvk/vlcsnap-2024-03-24-15h32m54s449.png"></a> <a href="https://postimg.cc/zH8pP9kg" target="_blank" class="externalLink" rel="nofollow"><img src="https://i.postimg.cc/zH8pP9kg/vlcsnap-2024-03-24-15h32m57s144.png" class="bbCodeImage LbImage" alt="[​IMG]" data-url="https://i.postimg.cc/zH8pP9kg/vlcsnap-2024-03-24-15h32m57s144.png"></a> <a href="https://postimg.cc/cgQXhsfW" target="_blank" class="externalLink" rel="nofollow"><img src="https://i.postimg.cc/cgQXhsfW/vlcsnap-2024-03-24-15h32m59s075.png" class="bbCodeImage LbImage" alt="[​IMG]" data-url="https://i.postimg.cc/cgQXhsfW/vlcsnap-2024-03-24-15h32m59s075.png"></a> <a href="https://postimg.cc/7GvKSCGX" target="_blank" class="externalLink" rel="nofollow"><img src="https://i.postimg.cc/7GvKSCGX/vlcsnap-2024-03-24-15h33m00s884.png" class="bbCodeImage LbImage" alt="[​IMG]" data-url="https://i.postimg.cc/7GvKSCGX/vlcsnap-2024-03-24-15h33m00s884.png"></a> <a href="https://postimg.cc/yDdpKCCh" target="_blank" class="externalLink" rel="nofollow"><img src="https://i.postimg.cc/yDdpKCCh/vlcsnap-2024-03-24-15h33m03s733.png" class="bbCodeImage LbImage" alt="[​IMG]" data-url="https://i.postimg.cc/yDdpKCCh/vlcsnap-2024-03-24-15h33m03s733.png"></a> <br>
<br>
​</div><br>
<div class="bbCodeBlock bbCodeCode">
<div class="type">Code:</div>
<pre>General
ID                                       : 1 (0x1)
Complete name                            : D:\Jungle - Live @ Lollapalooza Brazil 2024 HDTV H264 1080i DD5.1-ilya2129.ts
Format                                   : MPEG-TS
File size                                : 4.23 GiB
Duration                                 : 56 min 47 s
Overall bit rate mode                    : Variable
Overall bit rate                         : 10.7 Mb/s
Frame rate                               : 29.970 FPS

Video
ID                                       : 302 (0x12E)
Menu ID                                  : 1 (0x1)
Format                                   : AVC
Format/Info                              : Advanced Video Codec
Format profile                           : High@L4
Format settings                          : CABAC / 4 Ref Frames
Format settings, CABAC                   : Yes
Format settings, Reference frames        : 4 frames
Format settings, GOP                     : M=4, N=32
Codec ID                                 : 27
Duration                                 : 56 min 47 s
Bit rate mode                            : Variable
Bit rate                                 : 9 559 kb/s
Maximum bit rate                         : 18.1 Mb/s
Width                                    : 1 920 pixels
Height                                   : 1 080 pixels
Display aspect ratio                     : 16:9
Active Format Description                : Full frame 16:9 image
Frame rate                               : 29.970 (30000/1001) FPS
Standard                                 : Component
Color space                              : YUV
Chroma subsampling                       : 4:2:0
Bit depth                                : 8 bits
Scan type                                : MBAFF
Scan type, store method                  : Interleaved fields
Scan order                               : Top Field First
Bits/(Pixel*Frame)                       : 0.154
Stream size                              : 3.79 GiB (90%)
Color range                              : Limited
Color primaries                          : BT.709
Transfer characteristics                 : BT.709
Matrix coefficients                      : BT.709

Audio #1
ID                                       : 303 (0x12F)
Menu ID                                  : 1 (0x1)
Format                                   : AC-3
Format/Info                              : Audio Coding 3
Commercial name                          : Dolby Digital
Codec ID                                 : 129
Duration                                 : 56 min 47 s
Bit rate mode                            : Constant
Bit rate                                 : 384 kb/s
Channel(s)                               : 6 channels
Channel layout                           : L R C LFE Ls Rs
Sampling rate                            : 48.0 kHz
Frame rate                               : 31.250 FPS (1536 SPF)
Compression mode                         : Lossy
Stream size                              : 156 MiB (4%)
Language                                 : Portuguese
Service kind                             : Complete Main

Audio #2
ID                                       : 304 (0x130)
Menu ID                                  : 1 (0x1)
Format                                   : MPEG Audio
Format version                           : Version 1
Format profile                           : Layer 2
Codec ID                                 : 3
Duration                                 : 56 min 47 s
Bit rate mode                            : Constant
Bit rate                                 : 192 kb/s
Channel(s)                               : 2 channels
Sampling rate                            : 48.0 kHz
Frame rate                               : 41.667 FPS (1152 SPF)
Compression mode                         : Lossy
Stream size                              : 78.0 MiB (2%)
Language                                 : English


</pre>
</div><div style="text-align: center">
<div class="bbCodeBlock bbCodeVfcHH HiddenContent">
<div class="attribution type">Hidden Content:</div>
<blockquote>You must either reply or click 'Like' to see the hidden information contained here.</blockquote>
</div></div>
<div class="messageTextEndMarker">&nbsp;</div>
</blockquote>
</article>]]></description>
                <author><![CDATA[ilya2129]]></author>
                </item>

                
                <item>
                <title><![CDATA[【Actresses】Maribel Verdu, Ana Lopez Mercado, Maria Aura - And Your Mother Too (2001)1080p]]></title>
                <link><![CDATA[https://sharemania.us/threads/maribel-verdu-ana-lopez-mercado-maria-aura-and-your-mother-too-2001-1080p.240648/]]></link>
                <description><![CDATA[<article>
<blockquote class="messageText SelectQuoteContainer ugc baseHtml">
Maribel Verdu, Ana Lopez Mercado, Maria Aura - And Your Mother Too (2001)1080p <br>
<br>
<a href="https://imgbox.com/Ly0N5JW5" target="_blank" class="externalLink" rel="nofollow"><img src="https://thumbs2.imgbox.com/92/5d/Ly0N5JW5_t.jpg" class="bbCodeImage LbImage" alt="[​IMG]" data-url="https://thumbs2.imgbox.com/92/5d/Ly0N5JW5_t.jpg"></a> <a href="https://imgbox.com/PWzI9HqJ" target="_blank" class="externalLink" rel="nofollow"><img src="https://thumbs2.imgbox.com/81/d5/PWzI9HqJ_t.jpg" class="bbCodeImage LbImage" alt="[​IMG]" data-url="https://thumbs2.imgbox.com/81/d5/PWzI9HqJ_t.jpg"></a> <a href="https://imgbox.com/KHsmazwc" target="_blank" class="externalLink" rel="nofollow"><img src="https://thumbs2.imgbox.com/0d/e4/KHsmazwc_t.jpg" class="bbCodeImage LbImage" alt="[​IMG]" data-url="https://thumbs2.imgbox.com/0d/e4/KHsmazwc_t.jpg"></a> <a href="https://imgbox.com/fykCfLtf" target="_blank" class="externalLink" rel="nofollow"><img src="https://thumbs2.imgbox.com/75/9c/fykCfLtf_t.jpg" class="bbCodeImage LbImage" alt="[​IMG]" data-url="https://thumbs2.imgbox.com/75/9c/fykCfLtf_t.jpg"></a> <a href="https://imgbox.com/eDeR6vKR" target="_blank" class="externalLink" rel="nofollow"><img src="https://thumbs2.imgbox.com/a3/c6/eDeR6vKR_t.jpg" class="bbCodeImage LbImage" alt="[​IMG]" data-url="https://thumbs2.imgbox.com/a3/c6/eDeR6vKR_t.jpg"></a> <a href="https://imgbox.com/fvdh1kd7" target="_blank" class="externalLink" rel="nofollow"><img src="https://thumbs2.imgbox.com/b9/c9/fvdh1kd7_t.jpg" class="bbCodeImage LbImage" alt="[​IMG]" data-url="https://thumbs2.imgbox.com/b9/c9/fvdh1kd7_t.jpg"></a><br>
Duration: 0:14:04 Resolution: 1920x1080 Format: mp4 Size: 464.06 MB<br>
<a href="https://filejoker.net/566buawey2dw" target="_blank" class="externalLink" rel="nofollow">https://filejoker.net/566buawey2dw</a>
<div class="messageTextEndMarker">&nbsp;</div>
</blockquote>
</article>]]></description>
                <author><![CDATA[piqeros]]></author>
                </item>

                
                <item>
                <title><![CDATA[【Music Videos】Shakira - Give It Up To Me (No Rap) (2009)]]></title>
                <link><![CDATA[https://sharemania.us/threads/shakira-give-it-up-to-me-no-rap-2009.240649/]]></link>
                <description><![CDATA[<article>
<blockquote class="messageText SelectQuoteContainer ugc baseHtml">
<div style="text-align: center"><img src="https://i.postimg.cc/3r04c1YZ/Shakira-Give-It-Up-To-Me-No-Rap-2009-Fan-Made-mp4-thumbs2.jpg" class="bbCodeImage LbImage" alt="[​IMG]" data-url="https://i.postimg.cc/3r04c1YZ/Shakira-Give-It-Up-To-Me-No-Rap-2009-Fan-Made-mp4-thumbs2.jpg" style=""> <br>
<img src="https://i.postimg.cc/fyqwB6kN/Shakira-Give-It-Up-To-Me-No-Rap-2009-Fan-Made-mp4-thumbs.jpg" class="bbCodeImage LbImage" alt="[​IMG]" data-url="https://i.postimg.cc/fyqwB6kN/Shakira-Give-It-Up-To-Me-No-Rap-2009-Fan-Made-mp4-thumbs.jpg" style=""> ​</div><span style="font-size: 9px">Video unofficial</span><br>
<div style="text-align: center">
<div class="bbCodeBlock bbCodeVfcHH HiddenContent">
<div class="attribution type">Hidden Content:</div>
<blockquote>You must either reply or click 'Like' to see the hidden information contained here.</blockquote>
</div></div>
<div class="messageTextEndMarker">&nbsp;</div>
</blockquote>
</article>]]></description>
                <author><![CDATA[Fan Made]]></author>
                </item>

                
                <item>
                <title><![CDATA[【HD Live Performances】HDTV - The Offspring - Live @ Lollapalooza Brazil 2024 HDTV H264 1080i DD5.1-ilya2129]]></title>
                <link><![CDATA[https://sharemania.us/threads/the-offspring-live-lollapalooza-brazil-2024-hdtv-h264-1080i-dd5-1-ilya2129.240646/]]></link>
                <description><![CDATA[<article>
<blockquote class="messageText SelectQuoteContainer ugc baseHtml">
<div style="text-align: center"><img src="https://i121.fastpic.org/big/2023/0325/ca/6f5a28b7f8348073a65a926d4889cdca.png?r=1" class="bbCodeImage LbImage" alt="[​IMG]" data-url="https://i121.fastpic.org/big/2023/0325/ca/6f5a28b7f8348073a65a926d4889cdca.png?r=1" style=""><br>
<br>
<a href="https://postimg.cc/VdBPv8h3" target="_blank" class="externalLink" rel="nofollow"><img src="https://i.postimg.cc/VdBPv8h3/vlcsnap-2024-03-24-15h28m25s662.png" class="bbCodeImage LbImage" alt="[​IMG]" data-url="https://i.postimg.cc/VdBPv8h3/vlcsnap-2024-03-24-15h28m25s662.png"></a> <a href="https://postimg.cc/m1fKZXyL" target="_blank" class="externalLink" rel="nofollow"><img src="https://i.postimg.cc/m1fKZXyL/vlcsnap-2024-03-24-15h28m27s424.png" class="bbCodeImage LbImage" alt="[​IMG]" data-url="https://i.postimg.cc/m1fKZXyL/vlcsnap-2024-03-24-15h28m27s424.png"></a> <a href="https://postimg.cc/xJbW2DHp" target="_blank" class="externalLink" rel="nofollow"><img src="https://i.postimg.cc/xJbW2DHp/vlcsnap-2024-03-24-15h28m31s898.png" class="bbCodeImage LbImage" alt="[​IMG]" data-url="https://i.postimg.cc/xJbW2DHp/vlcsnap-2024-03-24-15h28m31s898.png"></a> <a href="https://postimg.cc/4KyDWh3g" target="_blank" class="externalLink" rel="nofollow"><img src="https://i.postimg.cc/4KyDWh3g/vlcsnap-2024-03-24-15h28m34s803.png" class="bbCodeImage LbImage" alt="[​IMG]" data-url="https://i.postimg.cc/4KyDWh3g/vlcsnap-2024-03-24-15h28m34s803.png"></a> <a href="https://postimg.cc/LqWrw6qZ" target="_blank" class="externalLink" rel="nofollow"><img src="https://i.postimg.cc/LqWrw6qZ/vlcsnap-2024-03-24-15h28m37s497.png" class="bbCodeImage LbImage" alt="[​IMG]" data-url="https://i.postimg.cc/LqWrw6qZ/vlcsnap-2024-03-24-15h28m37s497.png"></a> <a href="https://postimg.cc/xX6rGPn5" target="_blank" class="externalLink" rel="nofollow"><img src="https://i.postimg.cc/xX6rGPn5/vlcsnap-2024-03-24-15h28m40s592.png" class="bbCodeImage LbImage" alt="[​IMG]" data-url="https://i.postimg.cc/xX6rGPn5/vlcsnap-2024-03-24-15h28m40s592.png"></a><br>
<br>
​</div><br>
<div class="bbCodeBlock bbCodeCode">
<div class="type">Code:</div>
<pre>General
ID                                       : 1 (0x1)
Complete name                            : D:\The Offspring - Live @ Lollapalooza Brazil 2024 HDTV H264 1080i DD5.1-ilya2129.ts
Format                                   : MPEG-TS
File size                                : 4.79 GiB
Duration                                 : 56 min 48 s
Overall bit rate mode                    : Variable
Overall bit rate                         : 12.1 Mb/s
Frame rate                               : 29.970 FPS

Video
ID                                       : 302 (0x12E)
Menu ID                                  : 1 (0x1)
Format                                   : AVC
Format/Info                              : Advanced Video Codec
Format profile                           : High@L4
Format settings                          : CABAC / 4 Ref Frames
Format settings, CABAC                   : Yes
Format settings, Reference frames        : 4 frames
Format settings, GOP                     : M=4, N=32
Codec ID                                 : 27
Duration                                 : 56 min 48 s
Bit rate mode                            : Variable
Bit rate                                 : 10.9 Mb/s
Maximum bit rate                         : 18.1 Mb/s
Width                                    : 1 920 pixels
Height                                   : 1 080 pixels
Display aspect ratio                     : 16:9
Active Format Description                : Full frame 16:9 image
Frame rate                               : 29.970 (30000/1001) FPS
Standard                                 : Component
Color space                              : YUV
Chroma subsampling                       : 4:2:0
Bit depth                                : 8 bits
Scan type                                : MBAFF
Scan type, store method                  : Interleaved fields
Scan order                               : Top Field First
Bits/(Pixel*Frame)                       : 0.175
Stream size                              : 4.32 GiB (90%)
Color range                              : Limited
Color primaries                          : BT.709
Transfer characteristics                 : BT.709
Matrix coefficients                      : BT.709

Audio #1
ID                                       : 303 (0x12F)
Menu ID                                  : 1 (0x1)
Format                                   : AC-3
Format/Info                              : Audio Coding 3
Commercial name                          : Dolby Digital
Codec ID                                 : 129
Duration                                 : 56 min 48 s
Bit rate mode                            : Constant
Bit rate                                 : 384 kb/s
Channel(s)                               : 6 channels
Channel layout                           : L R C LFE Ls Rs
Sampling rate                            : 48.0 kHz
Frame rate                               : 31.250 FPS (1536 SPF)
Compression mode                         : Lossy
Stream size                              : 156 MiB (3%)
Language                                 : Portuguese
Service kind                             : Complete Main

Audio #2
ID                                       : 304 (0x130)
Menu ID                                  : 1 (0x1)
Format                                   : MPEG Audio
Format version                           : Version 1
Format profile                           : Layer 2
Codec ID                                 : 3
Duration                                 : 56 min 48 s
Bit rate mode                            : Constant
Bit rate                                 : 192 kb/s
Channel(s)                               : 2 channels
Sampling rate                            : 48.0 kHz
Frame rate                               : 41.667 FPS (1152 SPF)
Compression mode                         : Lossy
Stream size                              : 78.0 MiB (2%)
Language                                 : English

</pre>
</div><div style="text-align: center">
<div class="bbCodeBlock bbCodeVfcHH HiddenContent">
<div class="attribution type">Hidden Content:</div>
<blockquote>You must either reply or click 'Like' to see the hidden information contained here.</blockquote>
</div></div>
<div class="messageTextEndMarker">&nbsp;</div>
</blockquote>
</article>]]></description>
                <author><![CDATA[ilya2129]]></author>
                </item>

                
                <item>
                <title><![CDATA[【HD Live Performances】HDTV - Arcade Fire - Live @ Lollapalooza Brazil 2024 HDTV H264 1080i DD5.1-ilya2129]]></title>
                <link><![CDATA[https://sharemania.us/threads/arcade-fire-live-lollapalooza-brazil-2024-hdtv-h264-1080i-dd5-1-ilya2129.240645/]]></link>
                <description><![CDATA[<article>
<blockquote class="messageText SelectQuoteContainer ugc baseHtml">
<span style="font-family: 'Droid Sans'"><span style="color: rgb(20, 20, 20)"><div style="text-align: center"><img src="https://i121.fastpic.org/big/2023/0325/ca/6f5a28b7f8348073a65a926d4889cdca.png" class="bbCodeImage LbImage" alt="[​IMG]" data-url="https://i121.fastpic.org/big/2023/0325/ca/6f5a28b7f8348073a65a926d4889cdca.png" style=""><br>
​</div></span><div style="text-align: center">​</div></span><div style="text-align: center"><br>
<a href="https://postimg.cc/gnh15Wdx" target="_blank" class="externalLink" rel="nofollow"><img src="https://i.postimg.cc/gnh15Wdx/vlcsnap-2024-03-24-15h25m40s274.png" class="bbCodeImage LbImage" alt="[​IMG]" data-url="https://i.postimg.cc/gnh15Wdx/vlcsnap-2024-03-24-15h25m40s274.png"></a> <a href="https://postimg.cc/Ffrq7kSS" target="_blank" class="externalLink" rel="nofollow"><img src="https://i.postimg.cc/Ffrq7kSS/vlcsnap-2024-03-24-15h25m43s406.png" class="bbCodeImage LbImage" alt="[​IMG]" data-url="https://i.postimg.cc/Ffrq7kSS/vlcsnap-2024-03-24-15h25m43s406.png"></a> <a href="https://postimg.cc/9DtKmYDV" target="_blank" class="externalLink" rel="nofollow"><img src="https://i.postimg.cc/9DtKmYDV/vlcsnap-2024-03-24-15h25m50s673.png" class="bbCodeImage LbImage" alt="[​IMG]" data-url="https://i.postimg.cc/9DtKmYDV/vlcsnap-2024-03-24-15h25m50s673.png"></a> <a href="https://postimg.cc/Q9VyqL0x" target="_blank" class="externalLink" rel="nofollow"><img src="https://i.postimg.cc/Q9VyqL0x/vlcsnap-2024-03-24-15h25m54s274.png" class="bbCodeImage LbImage" alt="[​IMG]" data-url="https://i.postimg.cc/Q9VyqL0x/vlcsnap-2024-03-24-15h25m54s274.png"></a> <a href="https://postimg.cc/4YTjRSNB" target="_blank" class="externalLink" rel="nofollow"><img src="https://i.postimg.cc/4YTjRSNB/vlcsnap-2024-03-24-15h25m57s825.png" class="bbCodeImage LbImage" alt="[​IMG]" data-url="https://i.postimg.cc/4YTjRSNB/vlcsnap-2024-03-24-15h25m57s825.png"></a> <a href="https://postimg.cc/zLxQWDwc" target="_blank" class="externalLink" rel="nofollow"><img src="https://i.postimg.cc/zLxQWDwc/vlcsnap-2024-03-24-15h26m01s044.png" class="bbCodeImage LbImage" alt="[​IMG]" data-url="https://i.postimg.cc/zLxQWDwc/vlcsnap-2024-03-24-15h26m01s044.png"></a> <br>
<span style="font-family: 'Droid Sans'"><span style="color: rgb(20, 20, 20)"><br>
<div class="bbCodeBlock bbCodeCode">
<div class="type">Code:</div>
<pre></pre>
</div></span>
<div class="bbCodeBlock bbCodeCode">
<div class="type">Code:</div>
<pre></pre>
</div></span>
<div class="bbCodeBlock bbCodeCode">
<div class="type">Code:</div>
<pre>General
ID                                       : 1 (0x1)
Complete name                            : D:\Arcade Fire - Live @ Lollapalooza Brazil 2024 HDTV H264 1080i DD5.1-ilya2129.ts
Format                                   : MPEG-TS
File size                                : 6.11 GiB
Duration                                 : 1 h 18 min
Overall bit rate mode                    : Variable
Overall bit rate                         : 11.1 Mb/s
Frame rate                               : 29.970 FPS

Video
ID                                       : 302 (0x12E)
Menu ID                                  : 1 (0x1)
Format                                   : AVC
Format/Info                              : Advanced Video Codec
Format profile                           : High@L4
Format settings                          : CABAC / 4 Ref Frames
Format settings, CABAC                   : Yes
Format settings, Reference frames        : 4 frames
Codec ID                                 : 27
Duration                                 : 1 h 18 min
Bit rate mode                            : Variable
Bit rate                                 : 10.0 Mb/s
Maximum bit rate                         : 18.1 Mb/s
Width                                    : 1 920 pixels
Height                                   : 1 080 pixels
Display aspect ratio                     : 16:9
Active Format Description                : Full frame 16:9 image
Frame rate                               : 29.970 (30000/1001) FPS
Standard                                 : Component
Color space                              : YUV
Chroma subsampling                       : 4:2:0
Bit depth                                : 8 bits
Scan type                                : MBAFF
Scan type, store method                  : Interleaved fields
Scan order                               : Top Field First
Bits/(Pixel*Frame)                       : 0.161
Stream size                              : 5.49 GiB (90%)
Color range                              : Limited
Color primaries                          : BT.709
Transfer characteristics                 : BT.709
Matrix coefficients                      : BT.709

Audio #1
ID                                       : 303 (0x12F)
Menu ID                                  : 1 (0x1)
Format                                   : AC-3
Format/Info                              : Audio Coding 3
Commercial name                          : Dolby Digital
Codec ID                                 : 129
Duration                                 : 1 h 18 min
Bit rate mode                            : Constant
Bit rate                                 : 384 kb/s
Channel(s)                               : 6 channels
Channel layout                           : L R C LFE Ls Rs
Sampling rate                            : 48.0 kHz
Frame rate                               : 31.250 FPS (1536 SPF)
Compression mode                         : Lossy
Stream size                              : 216 MiB (3%)
Language                                 : Portuguese
Service kind                             : Complete Main

Audio #2
ID                                       : 304 (0x130)
Menu ID                                  : 1 (0x1)
Format                                   : MPEG Audio
Format version                           : Version 1
Format profile                           : Layer 2
Codec ID                                 : 3
Duration                                 : 1 h 18 min
Bit rate mode                            : Constant
Bit rate                                 : 192 kb/s
Channel(s)                               : 2 channels
Sampling rate                            : 48.0 kHz
Frame rate                               : 41.667 FPS (1152 SPF)
Compression mode                         : Lossy
Stream size                              : 108 MiB (2%)
Language                                 : English


</pre>
</div><span style="font-family: 'Droid Sans'"><span style="color: rgb(20, 20, 20)"><br>
<br>
<div style="text-align: center">
<div class="bbCodeBlock bbCodeVfcHH HiddenContent">
<div class="attribution type">Hidden Content:</div>
<blockquote>You must reply before you can see the hidden data contained here.</blockquote>
</div></div></span></span>​</div>
<div class="messageTextEndMarker">&nbsp;</div>
</blockquote>
</article>]]></description>
                <author><![CDATA[ilya2129]]></author>
                </item>

                
                <item>
                <title><![CDATA[【SD】DVD - Mariah Carey - Love Takes Time (Live) (1993) (Promo Only) [VOB]]]></title>
                <link><![CDATA[https://sharemania.us/threads/mariah-carey-love-takes-time-live-1993-promo-only-vob.240642/]]></link>
                <description><![CDATA[<article>
<blockquote class="messageText SelectQuoteContainer ugc baseHtml">
<div style="text-align: center"><img src="https://i.postimg.cc/YC2HYLTc/Fa48750d1ba981461d14f987159f2e3c.jpg" class="bbCodeImage LbImage" alt="[​IMG]" data-url="https://i.postimg.cc/YC2HYLTc/Fa48750d1ba981461d14f987159f2e3c.jpg" style=""> <br>
<img src="https://i.postimg.cc/7PpQHnsm/Mariah-Carey-Love-Takes-Time-Live-1993-Promo-Only-vob-thumbs.jpg" class="bbCodeImage LbImage" alt="[​IMG]" data-url="https://i.postimg.cc/7PpQHnsm/Mariah-Carey-Love-Takes-Time-Live-1993-Promo-Only-vob-thumbs.jpg" style=""> <br>
<div class="bbCodeBlock bbCodeVfcHH HiddenContent">
<div class="attribution type">Hidden Content:</div>
<blockquote>You must either reply or click 'Like' to see the hidden information contained here.</blockquote>
</div></div>
<div class="messageTextEndMarker">&nbsp;</div>
</blockquote>
</article>]]></description>
                <author><![CDATA[Fan Made]]></author>
                </item>

                
                <item>
                <title><![CDATA[【Albums (lossless)】FLAC - Horizon Zero Dawn: The Frozen Wilds (Original Soundtrack) [Qobuz, 24B-48kHz]]]></title>
                <link><![CDATA[https://sharemania.us/threads/horizon-zero-dawn-the-frozen-wilds-original-soundtrack-qobuz-24b-48khz.240641/]]></link>
                <description><![CDATA[<article>
<blockquote class="messageText SelectQuoteContainer ugc baseHtml">
<div style="text-align: center"><img src="https://i.imgur.com/z4FBByR.jpg" class="bbCodeImage LbImage" alt="[​IMG]" data-url="https://i.imgur.com/z4FBByR.jpg" style=""><br>
<br>
<b>Artist / Group: </b>Joris de Man, The Flight, Niels van der Leest<br>
<b><b>Single / Album:</b> </b>Horizon Zero Dawn: The Frozen Wilds<br>
<b><b>Date of Release:</b> </b>2023<br>
<b><b>Genre:</b> </b>Film Soundtrack<br>
<b><b>Size:</b> </b>506 MB<br>
<b><b>Tracks:</b> </b>23 Files<br>
<b><b>Format:</b> </b>FLAC (24B/48kHz)<br>
<br>
<div class="bbCodeBlock bbCodeCode">
<div class="type">Code:</div>
<pre>01. Into The Frozen Wilds - Joris de Man  00:01:11
02. The Fate We Long For - Joris de Man  00:01:14
03. To Be Banuk - Joris de Man  00:02:14
04. White Falls - Joris de Man 00:03:58
05. A New Hunter - The Flight  00:00:35
06. For The Werak - Joris de Man Man  00:01:36
07. Shadow on the Snow - Joris de Man  00:01:54
08. The Frostclaws - The Flight  00:00:42
09. Survive, Prevail - Joris de Man  00:02:26
10. Night Hushes Song - Joris de Man  00:04:14
11. Not Up, Through - The Flight  00:01:57
12. Threshold - The Flight  00:01:16
13. CYAN - The Flight  00:02:43
14. Spirits Released - The Flight  00:02:46
15. The Light of Her Voice - Joris de Man  00:01:40
16. Out from Thunder - Joris de Man  00:02:13
17. Breathstill - Joris de Man  00:01:14
18. Exposure - The Flight  00:00:53
19. The Delve - Joris de Man  00:00:40
20. Not Alone - Joris de Man  00:01:24
21. On a Cold Trail - Joris de Man  00:04:15
22. Running The Frost - Niels van der Leest  00:04:30
23. Heat Trace - The Flight  00:02:50
</pre>
</div>
<div class="bbCodeBlock bbCodeVfcHH HiddenContent">
<div class="attribution type">Hidden Content:</div>
<blockquote>You must reply before you can see the hidden data contained here.</blockquote>
</div></div>
<div class="messageTextEndMarker">&nbsp;</div>
</blockquote>
</article>]]></description>
                <author><![CDATA[mavs88]]></author>
                </item>

                
                <item>
                <title><![CDATA[【HD Live Performances】HDTV - Blink-182 - Live @ Lollapalooza Brazil 2024 HDTV H264 1080i DD5.1-ilya2129]]></title>
                <link><![CDATA[https://sharemania.us/threads/blink-182-live-lollapalooza-brazil-2024-hdtv-h264-1080i-dd5-1-ilya2129.240644/]]></link>
                <description><![CDATA[<article>
<blockquote class="messageText SelectQuoteContainer ugc baseHtml">
<div style="text-align: center"><img src="https://i121.fastpic.org/big/2023/0325/ca/6f5a28b7f8348073a65a926d4889cdca.png" class="bbCodeImage LbImage" alt="[​IMG]" data-url="https://i121.fastpic.org/big/2023/0325/ca/6f5a28b7f8348073a65a926d4889cdca.png" style=""><br>
<br>
<a href="https://postimg.cc/tsWyh67m" target="_blank" class="externalLink" rel="nofollow"><img src="https://i.postimg.cc/tsWyh67m/vlcsnap-2024-03-24-15h24m39s731.png" class="bbCodeImage LbImage" alt="[​IMG]" data-url="https://i.postimg.cc/tsWyh67m/vlcsnap-2024-03-24-15h24m39s731.png"></a> <a href="https://postimg.cc/s1xrTqvW" target="_blank" class="externalLink" rel="nofollow"><img src="https://i.postimg.cc/s1xrTqvW/vlcsnap-2024-03-24-15h24m41s886.png" class="bbCodeImage LbImage" alt="[​IMG]" data-url="https://i.postimg.cc/s1xrTqvW/vlcsnap-2024-03-24-15h24m41s886.png"></a> <a href="https://postimg.cc/fkPhpC9r" target="_blank" class="externalLink" rel="nofollow"><img src="https://i.postimg.cc/fkPhpC9r/vlcsnap-2024-03-24-15h24m44s089.png" class="bbCodeImage LbImage" alt="[​IMG]" data-url="https://i.postimg.cc/fkPhpC9r/vlcsnap-2024-03-24-15h24m44s089.png"></a> <a href="https://postimg.cc/XGH0VcDX" target="_blank" class="externalLink" rel="nofollow"><img src="https://i.postimg.cc/XGH0VcDX/vlcsnap-2024-03-24-15h24m46s146.png" class="bbCodeImage LbImage" alt="[​IMG]" data-url="https://i.postimg.cc/XGH0VcDX/vlcsnap-2024-03-24-15h24m46s146.png"></a> <a href="https://postimg.cc/m1PWhz0j" target="_blank" class="externalLink" rel="nofollow"><img src="https://i.postimg.cc/m1PWhz0j/vlcsnap-2024-03-24-15h24m47s905.png" class="bbCodeImage LbImage" alt="[​IMG]" data-url="https://i.postimg.cc/m1PWhz0j/vlcsnap-2024-03-24-15h24m47s905.png"></a> <a href="https://postimg.cc/cg4Sy5hV" target="_blank" class="externalLink" rel="nofollow"><img src="https://i.postimg.cc/cg4Sy5hV/vlcsnap-2024-03-24-15h24m49s642.png" class="bbCodeImage LbImage" alt="[​IMG]" data-url="https://i.postimg.cc/cg4Sy5hV/vlcsnap-2024-03-24-15h24m49s642.png"></a> <br>
<br>
<div class="bbCodeBlock bbCodeCode">
<div class="type">Code:</div>
<pre>General
ID                                       : 1 (0x1)
Complete name                            : D:\Blink-182 - Live @ Lollapalooza Brazil 2024 HDTV H264 1080i DD5.1-ilya2129.ts
Format                                   : MPEG-TS
File size                                : 7.15 GiB
Duration                                 : 1 h 31 min
Overall bit rate mode                    : Variable
Overall bit rate                         : 11.2 Mb/s
Frame rate                               : 29.970 FPS

Video
ID                                       : 302 (0x12E)
Menu ID                                  : 1 (0x1)
Format                                   : AVC
Format/Info                              : Advanced Video Codec
Format profile                           : High@L4
Format settings                          : CABAC / 4 Ref Frames
Format settings, CABAC                   : Yes
Format settings, Reference frames        : 4 frames
Format settings, GOP                     : M=4, N=32
Codec ID                                 : 27
Duration                                 : 1 h 31 min
Bit rate mode                            : Variable
Bit rate                                 : 10.1 Mb/s
Maximum bit rate                         : 18.1 Mb/s
Width                                    : 1 920 pixels
Height                                   : 1 080 pixels
Display aspect ratio                     : 16:9
Active Format Description                : Full frame 16:9 image
Frame rate                               : 29.970 (30000/1001) FPS
Standard                                 : Component
Color space                              : YUV
Chroma subsampling                       : 4:2:0
Bit depth                                : 8 bits
Scan type                                : MBAFF
Scan type, store method                  : Interleaved fields
Scan order                               : Top Field First
Bits/(Pixel*Frame)                       : 0.162
Stream size                              : 6.42 GiB (90%)
Color range                              : Limited
Color primaries                          : BT.709
Transfer characteristics                 : BT.709
Matrix coefficients                      : BT.709

Audio #1
ID                                       : 303 (0x12F)
Menu ID                                  : 1 (0x1)
Format                                   : AC-3
Format/Info                              : Audio Coding 3
Commercial name                          : Dolby Digital
Codec ID                                 : 129
Duration                                 : 1 h 31 min
Bit rate mode                            : Constant
Bit rate                                 : 384 kb/s
Channel(s)                               : 6 channels
Channel layout                           : L R C LFE Ls Rs
Sampling rate                            : 48.0 kHz
Frame rate                               : 31.250 FPS (1536 SPF)
Compression mode                         : Lossy
Delay relative to video                  : -100 ms
Stream size                              : 250 MiB (3%)
Language                                 : Portuguese
Service kind                             : Complete Main

Audio #2
ID                                       : 304 (0x130)
Menu ID                                  : 1 (0x1)
Format                                   : MPEG Audio
Format version                           : Version 1
Format profile                           : Layer 2
Codec ID                                 : 3
Duration                                 : 1 h 31 min
Bit rate mode                            : Constant
Bit rate                                 : 192 kb/s
Channel(s)                               : 2 channels
Sampling rate                            : 48.0 kHz
Frame rate                               : 41.667 FPS (1152 SPF)
Compression mode                         : Lossy
Delay relative to video                  : -100 ms
Stream size                              : 125 MiB (2%)
Language                                 : English

</pre>
</div><div style="text-align: center">
<div class="bbCodeBlock bbCodeVfcHH HiddenContent">
<div class="attribution type">Hidden Content:</div>
<blockquote>You must reply before you can see the hidden data contained here.</blockquote>
</div></div></div>
<div class="messageTextEndMarker">&nbsp;</div>
</blockquote>
</article>]]></description>
                <author><![CDATA[ilya2129]]></author>
                </item>

                
                <item>
                <title><![CDATA[【HD Live Performances】HDTV - Luisa Sonza - Live @ Lollapalooza Brazil 2024 HDTV H264 1080i DD5.1-ilya2129]]></title>
                <link><![CDATA[https://sharemania.us/threads/luisa-sonza-live-lollapalooza-brazil-2024-hdtv-h264-1080i-dd5-1-ilya2129.240643/]]></link>
                <description><![CDATA[<article>
<blockquote class="messageText SelectQuoteContainer ugc baseHtml">
<div style="text-align: center"><img src="https://i121.fastpic.org/big/2023/0325/ca/6f5a28b7f8348073a65a926d4889cdca.png" class="bbCodeImage LbImage" alt="[​IMG]" data-url="https://i121.fastpic.org/big/2023/0325/ca/6f5a28b7f8348073a65a926d4889cdca.png" style=""><br>
<br>
<a href="https://postimg.cc/c6xH0F61" target="_blank" class="externalLink" rel="nofollow"><img src="https://i.postimg.cc/c6xH0F61/vlcsnap-2024-03-24-15h35m51s758.png" class="bbCodeImage LbImage" alt="[​IMG]" data-url="https://i.postimg.cc/c6xH0F61/vlcsnap-2024-03-24-15h35m51s758.png"></a> <a href="https://postimg.cc/Xph7K3LX" target="_blank" class="externalLink" rel="nofollow"><img src="https://i.postimg.cc/Xph7K3LX/vlcsnap-2024-03-24-15h35m53s589.png" class="bbCodeImage LbImage" alt="[​IMG]" data-url="https://i.postimg.cc/Xph7K3LX/vlcsnap-2024-03-24-15h35m53s589.png"></a> <a href="https://postimg.cc/rDryQbZj" target="_blank" class="externalLink" rel="nofollow"><img src="https://i.postimg.cc/rDryQbZj/vlcsnap-2024-03-24-15h35m55s629.png" class="bbCodeImage LbImage" alt="[​IMG]" data-url="https://i.postimg.cc/rDryQbZj/vlcsnap-2024-03-24-15h35m55s629.png"></a> <a href="https://postimg.cc/2qNkJwPD" target="_blank" class="externalLink" rel="nofollow"><img src="https://i.postimg.cc/2qNkJwPD/vlcsnap-2024-03-24-15h35m57s375.png" class="bbCodeImage LbImage" alt="[​IMG]" data-url="https://i.postimg.cc/2qNkJwPD/vlcsnap-2024-03-24-15h35m57s375.png"></a> <a href="https://postimg.cc/XpXYyXwT" target="_blank" class="externalLink" rel="nofollow"><img src="https://i.postimg.cc/XpXYyXwT/vlcsnap-2024-03-24-15h36m00s198.png" class="bbCodeImage LbImage" alt="[​IMG]" data-url="https://i.postimg.cc/XpXYyXwT/vlcsnap-2024-03-24-15h36m00s198.png"></a> <a href="https://postimg.cc/XXsvJ9yf" target="_blank" class="externalLink" rel="nofollow"><img src="https://i.postimg.cc/XXsvJ9yf/vlcsnap-2024-03-24-15h36m01s936.png" class="bbCodeImage LbImage" alt="[​IMG]" data-url="https://i.postimg.cc/XXsvJ9yf/vlcsnap-2024-03-24-15h36m01s936.png"></a> <br>
<br>
<div class="bbCodeBlock bbCodeCode">
<div class="type">Code:</div>
<pre>General
ID                                       : 1 (0x1)
Complete name                            : D:\Luisa Sonza - Live @ Lollapalooza Brazil 2024 HDTV H264 1080i DD5.1-ilya2129.ts
Format                                   : MPEG-TS
File size                                : 5.40 GiB
Duration                                 : 1 h 1 min
Overall bit rate mode                    : Variable
Overall bit rate                         : 12.6 Mb/s
Frame rate                               : 29.970 FPS

Video
ID                                       : 302 (0x12E)
Menu ID                                  : 1 (0x1)
Format                                   : AVC
Format/Info                              : Advanced Video Codec
Format profile                           : High@L4
Format settings                          : CABAC / 4 Ref Frames
Format settings, CABAC                   : Yes
Format settings, Reference frames        : 4 frames
Format settings, GOP                     : M=4, N=32
Codec ID                                 : 27
Duration                                 : 1 h 1 min
Bit rate mode                            : Variable
Bit rate                                 : 11.4 Mb/s
Maximum bit rate                         : 18.1 Mb/s
Width                                    : 1 920 pixels
Height                                   : 1 080 pixels
Display aspect ratio                     : 16:9
Active Format Description                : Full frame 16:9 image
Frame rate                               : 29.970 (30000/1001) FPS
Standard                                 : Component
Color space                              : YUV
Chroma subsampling                       : 4:2:0
Bit depth                                : 8 bits
Scan type                                : MBAFF
Scan type, store method                  : Interleaved fields
Scan order                               : Top Field First
Bits/(Pixel*Frame)                       : 0.183
Stream size                              : 4.88 GiB (90%)
Color range                              : Limited
Color primaries                          : BT.709
Transfer characteristics                 : BT.709
Matrix coefficients                      : BT.709

Audio #1
ID                                       : 303 (0x12F)
Menu ID                                  : 1 (0x1)
Format                                   : AC-3
Format/Info                              : Audio Coding 3
Commercial name                          : Dolby Digital
Codec ID                                 : 129
Duration                                 : 1 h 1 min
Bit rate mode                            : Constant
Bit rate                                 : 384 kb/s
Channel(s)                               : 6 channels
Channel layout                           : L R C LFE Ls Rs
Sampling rate                            : 48.0 kHz
Frame rate                               : 31.250 FPS (1536 SPF)
Compression mode                         : Lossy
Delay relative to video                  : -100 ms
Stream size                              : 169 MiB (3%)
Language                                 : Portuguese
Service kind                             : Complete Main

Audio #2
ID                                       : 304 (0x130)
Menu ID                                  : 1 (0x1)
Format                                   : MPEG Audio
Format version                           : Version 1
Format profile                           : Layer 2
Codec ID                                 : 3
Duration                                 : 1 h 1 min
Bit rate mode                            : Constant
Bit rate                                 : 192 kb/s
Channel(s)                               : 2 channels
Sampling rate                            : 48.0 kHz
Frame rate                               : 41.667 FPS (1152 SPF)
Compression mode                         : Lossy
Delay relative to video                  : -100 ms
Stream size                              : 84.4 MiB (2%)
Language                                 : English



</pre>
</div><div style="text-align: center">
<div class="bbCodeBlock bbCodeVfcHH HiddenContent">
<div class="attribution type">Hidden Content:</div>
<blockquote>You must reply before you can see the hidden data contained here.</blockquote>
</div></div></div>
<div class="messageTextEndMarker">&nbsp;</div>
</blockquote>
</article>]]></description>
                <author><![CDATA[ilya2129]]></author>
                </item>

                </channel></rss>